<svg width="55" height="55" viewBox="0 0 55 55" fill="none" xmlns="http://www.w3.org/2000/svg">
<path d="M46.1822 12.0325C43.7967 9.64071 40.6345 8.18091 37.2667 7.91678C33.899 7.65264 30.5478 8.60158 27.8186 10.5922C24.9552 8.46244 21.3913 7.49671 17.8444 7.88947C14.2976 8.28224 11.0312 10.0043 8.70322 12.7089C6.3752 15.4135 5.15842 18.8998 5.2979 22.4656C5.43738 26.0314 6.92276 29.4119 9.45493 31.9264L23.4302 45.9242C24.6005 47.076 26.1766 47.7215 27.8186 47.7215C29.4605 47.7215 31.0367 47.076 32.207 45.9242L46.1822 31.9264C48.8098 29.2828 50.2846 25.7068 50.2846 21.9795C50.2846 18.2521 48.8098 14.6761 46.1822 12.0325ZM43.0091 28.8208L29.0338 42.7961C28.8748 42.9567 28.6855 43.0842 28.4769 43.1711C28.2683 43.2581 28.0446 43.3029 27.8186 43.3029C27.5926 43.3029 27.3688 43.2581 27.1602 43.1711C26.9517 43.0842 26.7624 42.9567 26.6033 42.7961L12.6281 28.7533C10.8632 26.9492 9.87488 24.5258 9.87488 22.002C9.87488 19.4782 10.8632 17.0547 12.6281 15.2506C14.4265 13.475 16.8521 12.4793 19.3794 12.4793C21.9067 12.4793 24.3323 13.475 26.1308 15.2506C26.34 15.4615 26.5889 15.629 26.8631 15.7432C27.1373 15.8575 27.4315 15.9163 27.7286 15.9163C28.0257 15.9163 28.3198 15.8575 28.594 15.7432C28.8683 15.629 29.1172 15.4615 29.3264 15.2506C31.1248 13.475 33.5504 12.4793 36.0777 12.4793C38.605 12.4793 41.0306 13.475 42.8291 15.2506C44.6182 17.0311 45.639 19.4414 45.6726 21.9652C45.7063 24.4891 44.7502 26.9258 43.0091 28.7533V28.8208Z" fill="white"/>
</svg>
