<svg width="45" height="44" viewBox="0 0 45 44" fill="none" xmlns="http://www.w3.org/2000/svg">
<path d="M32.4299 26.0741C32.3448 26.0335 29.1785 24.4734 28.616 24.2719C28.3813 24.175 28.1315 24.1197 27.8779 24.1083C27.6606 24.1122 27.4481 24.1724 27.2611 24.2831C27.0741 24.3938 26.9191 24.5511 26.8112 24.7397C26.4948 25.2102 25.5376 26.3296 25.2415 26.6635C25.2023 26.7082 25.1496 26.7609 25.1185 26.7609C25.0874 26.7609 24.6007 26.5595 24.452 26.4905C21.8931 25.1924 19.7128 23.2556 18.122 20.8677C18.0964 20.8296 18.0785 20.7869 18.0693 20.7419C18.1204 20.6606 18.1828 20.5868 18.2545 20.5229C18.4276 20.3526 18.6142 20.1268 18.7953 19.9091C18.8805 19.8064 18.967 19.7023 19.0509 19.6049C19.26 19.3602 19.4334 19.0871 19.5659 18.7937L19.6363 18.6518C19.7437 18.4344 19.796 18.1939 19.7885 17.9515C19.7809 17.7091 19.7138 17.4722 19.593 17.2619C19.5186 17.1119 18.1802 13.882 18.0382 13.5454C17.6962 12.7274 17.2446 12.3462 16.6173 12.3462C16.5592 12.3462 16.6173 12.3462 16.3726 12.357C15.4612 12.422 14.569 12.651 13.739 13.033C13.0445 13.5913 12.4958 14.3096 12.1398 15.1264C11.7837 15.9433 11.6311 16.8342 11.6948 17.723C11.8472 19.7565 12.6112 21.6963 13.8863 23.2877C13.9025 23.3093 13.9323 23.3539 13.9769 23.4229C16.122 26.7849 19.1955 29.4532 22.8256 31.1048C24.5022 31.9007 26.317 32.3649 28.1699 32.4716C28.4604 32.4696 28.7505 32.4525 29.0392 32.4202L29.1947 32.4054C30.0124 32.2617 30.7881 31.9387 31.466 31.4595C32.1439 30.9803 32.7072 30.3568 33.1154 29.6338C33.5232 28.7282 33.6114 27.711 33.3655 26.7487C33.1267 26.4368 32.8013 26.2022 32.4299 26.0741Z" fill="white"/>
<path d="M22.9719 7.64609e-05C17.3361 -0.0146702 11.9246 2.20668 7.92459 6.17681C3.92455 10.1469 1.66265 15.5416 1.6351 21.1773C1.63306 24.9447 2.64352 28.6433 4.56076 31.8863L0.895573 42.7021C0.861742 42.801 0.856079 42.9073 0.879216 43.0093C0.902354 43.1112 0.95338 43.2047 1.0266 43.2794C1.09981 43.354 1.19233 43.4068 1.29382 43.4318C1.39531 43.4569 1.50177 43.4533 1.6013 43.4213L12.874 39.8399C16.1156 41.5706 19.7487 42.4362 23.4225 42.353C27.0962 42.2699 30.6864 41.2409 33.8464 39.3653C37.0064 37.4898 39.6294 34.8311 41.4621 31.6461C43.2948 28.4611 44.2752 24.8573 44.3087 21.1827C44.2829 15.546 42.0218 10.1497 38.0215 6.17833C34.0212 2.20696 28.6087 -0.0150235 22.9719 7.64609e-05ZM22.9719 37.9404C19.6674 37.9453 16.434 36.9812 13.6717 35.1675C13.6016 35.1215 13.5222 35.0917 13.4392 35.0802C13.3562 35.0688 13.2716 35.076 13.1917 35.1013L7.54591 36.8967L9.36837 31.5186C9.39728 31.4328 9.40513 31.3414 9.39124 31.2519C9.37736 31.1625 9.34215 31.0778 9.2886 31.0048C7.19292 28.1573 6.06519 24.7129 6.07091 21.1773C6.04413 17.8293 7.01246 14.5487 8.85306 11.7519C10.6937 8.955 13.3236 6.76791 16.4091 5.46806C19.4947 4.16821 22.8968 3.81419 26.1838 4.45092C29.4709 5.08765 32.4948 6.68642 34.8718 9.0444C37.2488 11.4024 38.8718 14.4133 39.5349 17.6951C40.198 20.977 39.8713 24.3818 38.5963 27.4777C37.3213 30.5736 35.1554 33.221 32.3734 35.084C29.5914 36.947 26.3187 37.9417 22.9705 37.9418L22.9719 37.9404Z" fill="white"/>
</svg>
